<?xml version="1.0" encoding="iso-8859-1"?>
<!-- Generator: Adobe Illustrator 19.0.0, SVG Export Plug-In . SVG Version: 6.00 Build 0)  -->
<svg version="1.1" id="Layer_1" xmlns="http://www.w3.org/2000/svg" xmlns:xlink="http://www.w3.org/1999/xlink" x="0px" y="0px"
	 viewBox="0 0 501.333 501.333" style="enable-background:new 0 0 501.333 501.333;" xml:space="preserve">
<g>
	<g>
		<g>
			<path d="M496.747,183.167l-234.667-160c-3.52-2.453-8.213-2.453-11.84-0.107L4.8,183.167c-2.987,1.92-4.8,5.333-4.8,8.96v234.56
				c0,29.333,24,53.333,53.333,53.333H448c29.333,0,53.333-24,53.333-53.333V192.02C501.333,188.5,499.627,185.193,496.747,183.167z
				 M480,426.687c0,17.6-14.4,32-32,32H53.333c-17.6,0-32-14.4-32-32V215.7l132.587,91.84c4.8,3.307,11.52,2.133,14.827-2.667
				c3.307-4.8,2.133-11.52-2.667-14.827l-138.667-96L255.893,44.82L473.6,193.3c-0.213,0.107-0.533,0.107-0.747,0.32l-137.493,96
				c-5.013,3.52-6.187,10.347-2.773,15.36c3.413,5.013,10.347,6.187,15.36,2.773L480,215.593V426.687z"/>
			<path d="M317.013,320.02H184.427c-3.627,0-6.933,1.813-8.853,4.8l-56.747,85.547c-3.413,4.8-2.24,11.52,2.56,14.933
				c4.8,3.413,11.52,2.24,14.933-2.56c0.107-0.213,0.213-0.32,0.32-0.533l53.653-80.747H311.36l53.653,80.747
				c3.307,5.547,10.88,6.933,16,2.667c2.347-1.92,3.733-4.8,3.84-7.787c0.107-2.453-0.64-4.8-2.027-6.72l-56.96-85.547
				C323.84,321.833,320.533,320.02,317.013,320.02z"/>
		</g>
	</g>
</g>
<g>
</g>
<g>
</g>
<g>
</g>
<g>
</g>
<g>
</g>
<g>
</g>
<g>
</g>
<g>
</g>
<g>
</g>
<g>
</g>
<g>
</g>
<g>
</g>
<g>
</g>
<g>
</g>
<g>
</g>
</svg>
