<?xml version="1.0" encoding="iso-8859-1"?>
<!-- Generator: Adobe Illustrator 19.0.0, SVG Export Plug-In . SVG Version: 6.00 Build 0)  -->
<svg version="1.1" id="Layer_1" xmlns="http://www.w3.org/2000/svg" xmlns:xlink="http://www.w3.org/1999/xlink" x="0px" y="0px"
	 viewBox="0 0 511.894 511.894" style="enable-background:new 0 0 511.894 511.894;" xml:space="preserve">
<g>
	<g>
		<path d="M477.973,53.28H34.027C15.253,53.28,0,68.534,0,87.307v337.28c0,18.773,15.253,34.027,34.027,34.027h443.84
			c18.773,0,34.027-15.253,34.027-34.027V87.307C512,68.534,496.747,53.28,477.973,53.28z M475.733,74.614L270.72,283.147
			c-8.107,7.893-21.013,8-29.227,0.213L36.267,74.614H475.733z M21.333,422.667v-332.8l169.92,172.8L21.333,422.667z M36.907,437.28
			l169.387-159.36l20.16,20.587c7.893,7.68,18.453,12.053,29.44,12.053c11.093,0,21.867-4.373,29.76-12.16l15.147-15.467
			L474.667,437.28H36.907z M490.667,423.094L315.84,267.574L490.667,89.867V423.094z"/>
	</g>
</g>
<g>
</g>
<g>
</g>
<g>
</g>
<g>
</g>
<g>
</g>
<g>
</g>
<g>
</g>
<g>
</g>
<g>
</g>
<g>
</g>
<g>
</g>
<g>
</g>
<g>
</g>
<g>
</g>
<g>
</g>
</svg>
